<svg width="256" height="256" viewBox="0 0 256 256" fill="none" xmlns="http://www.w3.org/2000/svg">
<circle cx="21.573" cy="21.573" r="4.31461" fill="white"/>
<circle cx="60.4045" cy="8.62921" r="5.75281" fill="white"/>
<circle cx="232.989" cy="23.0112" r="5.75281" fill="white"/>
<circle cx="12.9438" cy="211.416" r="4.31461" fill="white"/>
<circle cx="34.5169" cy="241.618" r="2.8764" fill="white"/>
<mask id="mask0_0_1" style="mask-type:alpha" maskUnits="userSpaceOnUse" x="0" y="0" width="256" height="256">
<circle cx="128" cy="128" r="128" fill="white"/>
</mask>
<g mask="url(#mask0_0_1)">
<path fill-rule="evenodd" clip-rule="evenodd" d="M255.992 129.438C255.997 128.959 256 128.48 256 128C256 114.463 253.898 101.416 250.004 89.1685H266.067C268.45 89.1685 270.382 87.2368 270.382 84.8539C270.382 82.471 268.45 80.5393 266.067 80.5393H246.913C244.52 74.5502 241.688 68.7841 238.457 63.2809H312.09C314.473 63.2809 316.405 61.3492 316.405 58.9663C316.405 56.5834 314.473 54.6517 312.09 54.6517H232.914C209.768 21.6067 171.407 0 128 0C74.0763 0 27.9407 33.3445 9.08741 80.5393H-1.43818C-3.82107 80.5393 -5.75278 82.471 -5.75278 84.8539C-5.75278 87.2368 -3.82107 89.1685 -1.43818 89.1685H5.99625C2.10158 101.416 1.52588e-05 114.463 1.52588e-05 128C1.52588e-05 128.48 0.00265503 128.959 0.00792694 129.438H-90.6067C-92.9896 129.438 -94.9213 131.37 -94.9213 133.753C-94.9213 136.136 -92.9896 138.067 -90.6067 138.067H0.390106C1.57999 153.361 5.4577 167.9 11.5513 181.213H-30.2022C-32.5851 181.213 -34.5168 183.145 -34.5168 185.528C-34.5168 187.911 -32.5851 189.843 -30.2022 189.843H15.904C23.8562 204.226 34.4964 216.916 47.1468 227.236H12.9438C10.561 227.236 8.62923 229.168 8.62923 231.551C8.62923 233.933 10.561 235.865 12.9438 235.865H59.0568C78.9562 248.61 102.615 256 128 256C153.385 256 177.044 248.61 196.943 235.865H300.584C302.967 235.865 304.899 233.933 304.899 231.551C304.899 229.168 302.967 227.236 300.584 227.236H208.853C221.504 216.916 232.144 204.226 240.096 189.843H257.438C259.821 189.843 261.753 187.911 261.753 185.528C261.753 183.145 259.821 181.213 257.438 181.213H244.449C250.542 167.9 254.42 153.361 255.61 138.067H314.966C317.349 138.067 319.281 136.136 319.281 133.753C319.281 131.37 317.349 129.438 314.966 129.438H255.992ZM255.992 129.438H185.528C183.145 129.438 181.214 131.37 181.214 133.753C181.214 136.136 183.145 138.067 185.528 138.067H255.61C255.832 135.216 255.96 132.339 255.992 129.438ZM244.449 181.213H128C125.617 181.213 123.685 183.145 123.685 185.528C123.685 187.911 125.617 189.843 128 189.843H240.096C241.651 187.029 243.104 184.151 244.449 181.213ZM208.853 227.236H171.146C168.763 227.236 166.831 229.168 166.831 231.551C166.831 233.933 168.763 235.865 171.146 235.865H196.943C201.082 233.214 205.058 230.332 208.853 227.236ZM59.0568 235.865H142.382C144.765 235.865 146.697 233.933 146.697 231.551C146.697 229.168 144.765 227.236 142.382 227.236H47.1468C50.942 230.332 54.9181 233.214 59.0568 235.865ZM15.904 189.843H99.236C101.619 189.843 103.551 187.911 103.551 185.528C103.551 183.145 101.619 181.213 99.236 181.213H11.5513C12.896 184.151 14.3486 187.029 15.904 189.843ZM0.390106 138.067H38.8315C41.2144 138.067 43.1461 136.136 43.1461 133.753C43.1461 131.37 41.2144 129.438 38.8315 129.438H0.00792694C0.0398636 132.339 0.168274 135.216 0.390106 138.067ZM5.99625 89.1685H107.865C110.248 89.1685 112.18 87.2368 112.18 84.8539C112.18 82.471 110.248 80.5393 107.865 80.5393H9.08741C7.95766 83.3674 6.92587 86.2452 5.99625 89.1685ZM232.914 54.6517H182.652C180.269 54.6517 178.337 56.5834 178.337 58.9663C178.337 61.3492 180.269 63.2809 182.652 63.2809H238.457C236.722 60.3267 234.872 57.4482 232.914 54.6517ZM246.913 80.5393H136.629C134.246 80.5393 132.315 82.471 132.315 84.8539C132.315 87.2368 134.246 89.1685 136.629 89.1685H250.004C249.074 86.2452 248.042 83.3674 246.913 80.5393ZM73.3483 28.764C70.9655 28.764 69.0337 30.6958 69.0337 33.0787C69.0337 35.4615 70.9655 37.3933 73.3483 37.3933H116.494C118.877 37.3933 120.809 35.4615 120.809 33.0787C120.809 30.6958 118.877 28.764 116.494 28.764H73.3483ZM20.1349 107.865C20.1349 105.482 22.0666 103.551 24.4495 103.551H64.7191C67.102 103.551 69.0337 105.482 69.0337 107.865C69.0337 110.248 67.102 112.18 64.7191 112.18H24.4495C22.0666 112.18 20.1349 110.248 20.1349 107.865ZM104.989 103.551C102.606 103.551 100.674 105.482 100.674 107.865C100.674 110.248 102.606 112.18 104.989 112.18H145.258C147.641 112.18 149.573 110.248 149.573 107.865C149.573 105.482 147.641 103.551 145.258 103.551H104.989ZM63.2809 133.753C63.2809 131.37 65.2126 129.438 67.5955 129.438H153.888C156.271 129.438 158.202 131.37 158.202 133.753C158.202 136.136 156.271 138.067 153.888 138.067H67.5955C65.2126 138.067 63.2809 136.136 63.2809 133.753ZM96.3596 155.326C93.9767 155.326 92.045 157.258 92.045 159.64C92.045 162.023 93.9767 163.955 96.3596 163.955H182.652C185.035 163.955 186.966 162.023 186.966 159.64C186.966 157.258 185.035 155.326 182.652 155.326H96.3596ZM66.1573 205.663C66.1573 203.28 68.0891 201.348 70.4719 201.348H156.764C159.147 201.348 161.079 203.28 161.079 205.663C161.079 208.046 159.147 209.978 156.764 209.978H70.4719C68.0891 209.978 66.1573 208.046 66.1573 205.663ZM97.7978 58.9663C97.7978 56.5834 99.7295 54.6517 102.112 54.6517H145.258C147.641 54.6517 149.573 56.5834 149.573 58.9663C149.573 61.3492 147.641 63.2809 145.258 63.2809H102.112C99.7295 63.2809 97.7978 61.3492 97.7978 58.9663ZM148.135 28.764C145.752 28.764 143.82 30.6958 143.82 33.0787C143.82 35.4615 145.752 37.3933 148.135 37.3933H179.775C182.158 37.3933 184.09 35.4615 184.09 33.0787C184.09 30.6958 182.158 28.764 179.775 28.764H148.135Z" fill="white"/>
</g>
</svg>
